<svg xmlns="http://www.w3.org/2000/svg" width="32" height="32" viewBox="0 0 32 32">
  <defs>
    <linearGradient id="fireGradient" x1="0%" y1="100%" x2="0%" y2="0%">
      <stop offset="0%" style="stop-color:#dc2626"/>
      <stop offset="50%" style="stop-color:#f59e0b"/>
      <stop offset="100%" style="stop-color:#fbbf24"/>
    </linearGradient>
  </defs>
  <!-- Background -->
  <rect width="32" height="32" rx="6" fill="#111827"/>
  <!-- Fire/Flame icon -->
  <path d="M16 4C16 4 10 10 10 16C10 19.3137 12.6863 22 16 22C19.3137 22 22 19.3137 22 16C22 10 16 4 16 4Z" fill="url(#fireGradient)"/>
  <!-- Inner flame -->
  <path d="M16 10C16 10 13 13 13 16C13 17.6569 14.3431 19 16 19C17.6569 19 19 17.6569 19 16C19 13 16 10 16 10Z" fill="#fff" opacity="0.85"/>
  <!-- Base line -->
  <rect x="8" y="24" width="16" height="3" rx="1" fill="#dc2626"/>
</svg>
